<?xml version="1.0" standalone="no"?>
<!DOCTYPE svg PUBLIC "-//W3C//DTD SVG 20010904//EN"
 "http://www.w3.org/TR/2001/REC-SVG-20010904/DTD/svg10.dtd">
<svg version="1.0" xmlns="http://www.w3.org/2000/svg"
 width="512.000000pt" height="512.000000pt" viewBox="0 0 512.000000 512.000000"
 preserveAspectRatio="xMidYMid meet">
<metadata>
Created by potrace 1.11, written by Peter Selinger 2001-2013
</metadata>
<g transform="translate(0.000000,512.000000) scale(0.100000,-0.100000)"
fill="#000000" stroke="none">
<path d="M2330 5109 c-321 -29 -651 -126 -948 -279 -231 -120 -412 -251 -606
-439 -418 -408 -674 -918 -758 -1511 -20 -144 -17 -536 5 -680 88 -573 340
-1067 748 -1467 394 -386 872 -624 1429 -710 142 -22 559 -25 685 -5 329 53
561 124 815 252 244 122 434 257 633 450 325 314 562 704 682 1122 257 891 23
1834 -619 2497 -539 555 -1297 838 -2066 770z m324 -980 c67 -25 140 -100 157
-162 37 -139 -20 -264 -146 -323 -164 -77 -364 48 -366 228 -1 82 16 131 67
187 77 85 180 111 288 70z m278 -779 c100 -28 86 -156 -18 -173 -21 -4 -47
-16 -60 -28 l-24 -22 0 -964 0 -964 23 -23 c13 -12 41 -26 64 -29 76 -13 107
-88 59 -144 l-24 -28 -392 0 -392 0 -24 28 c-48 56 -17 131 59 144 23 3 51 17
64 29 l23 23 0 964 0 964 -24 22 c-13 12 -39 24 -60 28 -101 16 -118 144 -23
172 45 13 703 13 749 1z"/>
</g>
</svg>
